<?xml version="1.0" encoding="UTF-8" standalone="no"?>
<!-- Created with Inkscape (http://www.inkscape.org/) -->

<svg
   width="21.161444mm"
   height="15.433117mm"
   viewBox="0 0 21.161444 15.433117"
   version="1.1"
   id="svg5"
   sodipodi:docname="super_vet.svg"
   xmlns:inkscape="http://www.inkscape.org/namespaces/inkscape"
   xmlns:sodipodi="http://sodipodi.sourceforge.net/DTD/sodipodi-0.dtd"
   xmlns="http://www.w3.org/2000/svg"
   xmlns:svg="http://www.w3.org/2000/svg">
  <sodipodi:namedview
     id="namedview7"
     pagecolor="#ffffff"
     bordercolor="#000000"
     borderopacity="0.25"
     inkscape:showpageshadow="2"
     inkscape:pageopacity="0.0"
     inkscape:pagecheckerboard="0"
     inkscape:deskcolor="#d1d1d1"
     inkscape:document-units="mm"
     showgrid="false" />
  <defs
     id="defs2" />
  <g
     inkscape:label="Camada 1"
     inkscape:groupmode="layer"
     id="layer1"
     transform="translate(-32.5944,-76.400232)">
    <g
       aria-label="super"
       transform="matrix(0.48809502,0,0,0.38439701,22.35585,36.139225)"
       id="text236"
       style="font-size:14.9775px;font-family:'Franklin Gothic Book';-inkscape-font-specification:'Franklin Gothic Book, Normal';opacity:1;fill:#ef1605;stroke-width:1.17933"
       inkscape:export-filename="text236.svg"
       inkscape:export-xdpi="96"
       inkscape:export-ydpi="96">
      <path
         d="m 24.273308,116.7931 1.096985,-0.22671 q 0.365661,1.39683 2.310981,1.39683 0.716697,0 1.213997,-0.32178 0.4973,-0.32179 0.4973,-0.90685 0,-0.87027 -1.26519,-1.10429 l -1.557718,-0.29253 q -0.914154,-0.17552 -1.455333,-0.68745 -0.54118,-0.51192 -0.54118,-1.35294 0,-0.92879 0.738637,-1.55041 0.738636,-0.62894 1.989199,-0.62894 2.406054,0 2.969172,1.8795 l -1.053105,0.22671 q -0.45342,-1.15549 -1.864874,-1.15549 -0.702071,0 -1.155491,0.29253 -0.446107,0.28522 -0.446107,0.80446 0,0.81908 1.148177,1.03116 l 1.440707,0.25597 q 2.259789,0.40954 2.259789,2.18665 0,1.01654 -0.841022,1.64548 -0.841022,0.62162 -2.237849,0.62162 -2.62545,0 -3.247075,-2.11352 z"
         id="path1142" />
      <path
         d="m 38.029498,118.70917 h -1.031166 v -1.41146 q -0.789829,1.60891 -2.354861,1.60891 -1.133551,0 -1.784428,-0.74594 -0.643565,-0.74595 -0.643565,-2.12084 v -4.71704 h 1.148178 v 4.71704 q 0,1.09698 0.45342,1.51384 0.460734,0.40954 1.009226,0.40954 0.555806,0 1.001913,-0.31447 0.453421,-0.31447 0.753263,-0.89222 0.299843,-0.58505 0.299843,-1.2725 v -4.16123 h 1.148177 z"
         id="path1144" />
      <path
         d="m 41.47403,121.20298 h -1.148177 v -9.88018 h 1.031166 v 1.4334 q 0.782515,-1.63817 2.332921,-1.63817 1.309068,0 2.113524,1.09699 0.804455,1.08967 0.804455,2.7644 0,1.80637 -0.826395,2.86679 -0.826395,1.06041 -2.120837,1.06041 -1.389514,0 -2.186657,-1.32369 z m 0,-7.25473 v 2.07696 q 0.109699,0.84102 0.709384,1.38952 0.599685,0.54849 1.250563,0.54849 0.753262,0 1.331008,-0.65819 0.585058,-0.65819 0.585058,-2.27442 0,-1.39683 -0.526552,-2.15009 -0.526553,-0.76057 -1.396828,-0.76057 -0.687444,0 -1.235936,0.53386 -0.541179,0.53387 -0.716697,1.29444 z"
         id="path1146" />
      <path
         d="m 53.204454,116.50788 1.067732,0.2194 q -0.292529,0.94341 -1.140864,1.56503 -0.848335,0.61431 -1.996513,0.61431 -1.513839,0 -2.449933,-1.06041 -0.936093,-1.06774 -0.936093,-2.79366 0,-1.76249 0.972659,-2.84485 0.97266,-1.08967 2.44262,-1.08967 1.44802,0 2.325608,1.00192 0.884901,1.00191 0.906841,2.99842 h -5.367913 q 0,1.67473 0.702071,2.25979 0.70207,0.58506 1.484586,0.58506 1.411454,0 1.989199,-1.45534 z m -0.06582,-2.24516 q -0.01463,-0.62162 -0.204771,-1.1043 -0.190144,-0.48267 -0.643564,-0.81908 -0.453421,-0.34372 -1.089672,-0.34372 -0.855648,0 -1.455333,0.61431 -0.592372,0.61431 -0.665504,1.65279 z"
         id="path1148" />
      <path
         d="m 57.270611,118.70917 h -1.148177 v -7.38637 h 1.009226 v 1.72593 q 0.533866,-1.22131 1.067732,-1.57966 0.541179,-0.36566 1.104298,-0.36566 0.175518,0 0.453421,0.0293 v 1.09698 h -0.234024 q -0.95072,0 -1.579658,0.70939 -0.628938,0.70938 -0.672818,1.86487 z"
         id="path1150" />
    </g>
    <g
       aria-label="VET"
       transform="matrix(0.69679842,0,0,0.55249227,21.284301,-7.4500809)"
       id="text242"
       style="font-weight:900;font-size:12.0328px;font-family:Arial;-inkscape-font-specification:'Arial, Heavy';fill:#ff1700;stroke-width:0.947462">
      <path
         d="m 17.586634,166.44635 h 2.784935 l 1.938879,6.19854 1.909502,-6.19854 h 2.702679 l -3.196212,8.61333 H 20.8416 Z"
         id="path1153" />
      <path
         d="m 27.792187,166.44635 h 7.132724 v 1.839 h -4.465297 v 1.36897 h 4.142151 v 1.75674 h -4.142151 v 1.69799 h 4.594556 v 1.95063 h -7.261983 z"
         id="path1155" />
      <path
         d="m 35.8826,166.44635 h 8.090413 v 2.1269 h -2.714431 v 6.48643 h -2.661551 v -6.48643 H 35.8826 Z"
         id="path1157" />
    </g>
    <path
       style="color:#000000;fill:#ff001d;stroke-width:0.49331;-inkscape-stroke:none"
       d="m 34.447505,76.400232 c -1.020771,0 -1.853105,1.536303 -1.853105,3.420419 v 8.592279 c 0,1.884115 0.832334,3.420418 1.853105,3.420418 h 17.455231 c 1.020772,0 1.853106,-1.536303 1.853106,-3.420418 v -8.592279 c 0,-1.884116 -0.832334,-3.420419 -1.853106,-3.420419 z m 0,1.26973 h 17.455231 c 0.651811,0 1.165903,0.94759 1.165903,2.150689 v 8.592279 c 0,1.203098 -0.514092,2.150688 -1.165903,2.150688 H 34.447505 c -0.651812,0 -1.165901,-0.94759 -1.165901,-2.150688 v -8.592279 c 0,-1.203099 0.514089,-2.150689 1.165901,-2.150689 z"
       id="rect1093"
       inkscape:export-filename="rect1093.png"
       inkscape:export-xdpi="96"
       inkscape:export-ydpi="96" />
  </g>
</svg>
